<svg xmlns="http://www.w3.org/2000/svg" viewBox="0 0 200 200" style="background-color:lightgray" >
    <defs>
        <polyline id="hex" points="50 3, 100 28, 100 75, 50 100, 3 75, 3 25" >
            <animate attributeName="stroke-width" values="0;5;0" dur="10s" repeatCount="indefinite" />
            <animate attributeName="fill-opacity" values="0.8;0.9;0.8" dur="7s" repeatCount="indefinite" />
        </polyline>
        <g id="single">
            <polyline points="50 55,66 37,60 35" />
            <use href="#hex" transform="translate(60,30) scale(0.3) " />
            <use href="#hex" transform="translate(60,90) scale(0.2)" />
            <use href="#hex" transform="translate(80,120) scale(0.5) " />
        </g>
        <g id="third">
            <use transform="matrix(1,0,0,1,0,0)" href="#single" />
            <use href="#single" transform="scale(1,-1) translate(0,-200)"  />
        </g>
        
        <g id="flake">
            <animateTransform attributeName="transform"
                attributeType="XML"
                type="rotate"
                from="0 100 100"
                to="360 100 100"
                dur="20s"
                repeatCount="indefinite"/>                         
                 
            <use href="#third" /> 
            <use href="#third" transform="rotate(120,100,100)" />
            <use href="#third" transform="rotate(240,100,100)" />        
        </g>

        <g id="single2">
            <use href="#hex" transform="translate(60,60) scale(0.5) " />
            <use href="#hex" transform="translate(60,90) scale(0.3)" />
            <use href="#hex" transform="translate(80,120) scale(0.5) " />
            </g>
        <g id="third2">
            <use transform="matrix(1,0,0,1,0,0)" href="#single" />
            <use href="#single2" transform="scale(1,-1) translate(0,-200)"  />
        </g>
        
        <g id="flake2" transform="scale(0.3)">
            <animateTransform attributeName="transform"
                attributeType="XML"
                type="rotate"
                from="0 60 70"
                to="360 60 70"
                dur="5s"
                repeatCount="indefinite"/>                  
            <use href="#third2" />                
            <use href="#third2" transform="rotate(120,100,100)" />
            <use href="#third2" transform="rotate(240,100,100)" />        
        </g>

    </defs>
    <style>
        polyline{
            fill: #FFFFFF;
            stroke:white;
            stroke-width:0px;
        }
        polyline:hover{
            fill: red;
        }
    </style>
    <use href="#flake"  />                        
</svg>